<svg xmlns="http://www.w3.org/2000/svg" width="512" height="512" viewBox="0 0 512 512"><mask id="a"><circle cx="256" cy="256" r="256" fill="#fff"/></mask><g mask="url(#a)"><rect fill="#16213e" width="512" height="512"/><g transform="translate(106,56) scale(1.5)" fill="#d4d4e0"><path d="m 100,36.47 c -0.23,0 -0.43,0.35 -0.78,1.41 -2.36,1.67 -5.99,3.14 -4.34,5.12 2.04,-1.54 3.66,0.21 4.34,1.97 l 0,2.53 c -0.38,0.22 -1.06,0 -2.13,-1.16 -3.86,-2.44 -10.68,1.17 -5.87,5.1 3.86,2.15 -0.33,-5.82 4.97,-3.1 4.81,1.91 2.15,15.11 -3.88,9.35 -4.34,-3.4 -12.59,-3.79 -13.56,-10.57 0.87,-2.47 8.35,-2.92 3.94,0 4.85,3.36 2.9,-7.95 -2.31,-4.31 -6.85,-0.18 -2.7,9.14 -6.63,12.69 -0.88,6.18 5.25,3.06 7.37,0.25 -2.23,1.21 -8.51,0 -3.09,-1.41 5.27,0.43 9.62,3.41 13.44,6.47 -0.25,2.83 9.23,6.05 2.28,5.38 -3.45,2.58 4.72,3.96 2.78,8.12 1.8,4.6 -3.07,8.31 -5.06,2.66 0.77,-3.75 -8.23,-7.19 -5.72,-2.69 7.48,3.01 -5.37,1.56 -6.03,-2.28 -2.83,-3.85 0.56,-9.67 2,-4.38 4.36,-5.61 -4.78,-6.15 -4.91,0.16 -0.15,7.32 6.93,7.9 10.78,11.28 2.94,2.57 12.71,8.18 5.41,10.97 -3.44,0.1 -9.31,-6.31 -7.75,-8.09 5.35,0.6 -1.01,-2.49 -2.63,-2.91 -4.14,-2.6 1.85,3.89 -0.62,5.53 5.59,-0.1 -0.85,7.81 5.03,5.66 3.41,1.92 6.8,6.04 8.59,9.31 -2.31,6.07 -9.51,-3.11 -12.06,-6.03 -2.55,-4.06 -4.59,-8.23 -6.62,-12 -3.69,-6.84 -4.29,-7.55 -7.6,-15.16 -2.5,-5.19 -8.46,-10.57 -12.78,-6.5 -1.01,0.95 0,6.26 3.56,6.13 2.46,-0.1 -3.12,-1.68 -2.71,-4.09 0.27,-1.61 2.59,-3.41 6.21,0.4 2.04,2.14 6.56,7.61 0.6,6.72 -3.69,0.27 -4.79,0.58 -11.75,2.78 -6.96,2.19 -7.76,13.5 -0.16,14.97 5.4,0.65 12.41,-3.95 10.72,-10.03 -1.34,-4.8 -11.63,0.19 -3.28,-0.5 4.09,4.06 -3.35,12.31 -8.13,7.84 -5.67,-2.37 -2.35,-8.85 2,-10.53 4.61,-1.37 12.17,-3.5 14.72,2.03 0.1,3.72 5.26,11.8 -1.9,9.63 -5.78,0.34 -11.16,2.74 -15.35,4.84 -3.8,2.22 -5.6,-6.14 -7.15,-0.84 0.43,1.97 4.87,6.11 5.12,3.19 7.27,0.59 -5.64,6.89 -7.31,1.59 -1.43,-4.59 -1.76,7.33 2.81,5.09 2.53,0.16 4.94,-3.33 3.56,1.34 -1.13,1.9 -9.49,0 -4.78,3.1 1.46,8 7.43,-6.74 8.47,1.2 1.52,7.7 13.82,6.1 14.13,-1.2 2.96,-2.1 -2.83,-14.98 -2.41,-5.53 4.56,6.13 -6.23,13.83 -9.94,7.03 -3.16,-5.16 -1.8,-13.38 4.66,-14.94 3.91,-3.27 10.33,-2.32 14.31,0 3.17,0.45 5.3,4.57 7.47,5.75 -2.4,-1.46 -9.03,-1.91 -3.81,1.13 6.48,0 7.98,7.26 12.19,9.96 3.64,6 -7.5,0.2 -7.5,-3.5 -6.49,-1.3 -3.37,3.4 0.47,4.4 -4.36,4.5 -8.06,-5 -6.04,-7.96 -2.93,-5.91 -8.43,-0.38 -5.56,3.16 6.93,-0.7 3.94,9.2 2.16,10 2.12,3 10.12,0.1 3.37,-0.2 -2.55,-4 10.51,-3.4 5.66,1.3 -3.87,8.4 13.03,6.5 7.28,1.1 -0.51,5.7 -9.33,1.5 -4.25,-2.3 7.02,-2.9 11.25,5.2 11.44,10.7 0.2,13.3 0.53,26.7 -0.38,40 -2.55,4.9 -10.94,4.7 -10.97,11.6 -1.95,2.4 -2.54,9 -7.43,6.2 0.95,-1.6 6.43,-2.5 1.56,-2.3 -7.74,4.1 6.66,6.8 6.5,0.2 -0.49,-3.1 7.13,-7.8 7.72,-4.9 -4.96,1.9 -3.54,9.2 -7.78,10.7 -1.24,-1.5 2.9,-3.1 -0.88,-1.6 -4.35,4.5 7.95,4.8 6.16,-1 0.37,-7.4 10.66,-6 7.12,1.3 -1.42,4.2 -4.23,0.4 -1.72,-0.7 -5.36,-0.2 -0.78,6.3 2.13,7 1.07,2.9 -1.47,3.5 1.09,6.4 0.39,2 1.02,2.2 1.44,2.2 0.4,0 1.1,-0.2 1.5,-2.2 2.5,-2.9 0,-3.5 1,-6.4 3,-0.7 7.5,-7.2 2.2,-7 2.5,1.1 -0.3,4.9 -1.7,0.7 -3.6,-7.3 6.7,-8.7 7.1,-1.3 -1.8,5.8 10.5,5.5 6.1,1 -3.7,-1.5 0.4,0.1 -0.8,1.6 -4.3,-1.5 -2.9,-8.8 -7.8,-10.7 0.6,-2.9 8.2,1.8 7.7,4.9 -0.2,6.6 14.2,3.9 6.5,-0.2 -4.9,-0.2 0.6,0.7 1.5,2.3 -4.9,2.8 -5.4,-3.8 -7.4,-6.2 0,-6.9 -8.4,-6.7 -10.9,-11.6 -1,-13.3 -0.6,-26.7 -0.4,-40 0.2,-5.5 4.4,-13.6 11.4,-10.7 5.1,3.8 -3.7,8 -4.2,2.3 -5.8,5.4 11.1,7.3 7.2,-1.1 -4.8,-4.7 8.2,-5.3 5.7,-1.3 -6.7,0.3 1.2,3.2 3.4,0.2 -1.8,-0.8 -4.8,-10.7 2.1,-10 2.9,-3.54 -2.6,-9.07 -5.5,-3.16 2,2.96 -1.7,12.46 -6.1,7.96 3.9,-1 7,-5.7 0.5,-4.4 0,3.7 -11.1,9.5 -7.5,3.5 4.2,-2.7 5.7,-9.96 12.2,-9.96 5.2,-3.04 -1.4,-2.59 -3.8,-1.13 2.2,-1.18 4.3,-5.3 7.4,-5.75 4,-2.32 10.5,-3.27 14.4,0 6.4,1.56 7.8,9.78 4.6,14.94 -3.7,6.8 -14.5,-0.9 -9.9,-7.03 0.4,-9.45 -5.4,3.43 -2.4,5.53 0.3,7.3 12.6,8.9 14.1,1.2 1,-7.94 7,6.8 8.5,-1.2 4.7,-3.1 -3.7,-1.2 -4.8,-3.1 -1.4,-4.67 1,-1.18 3.6,-1.34 4.5,2.24 4.2,-9.68 2.8,-5.09 -1.7,5.3 -14.6,-1 -7.3,-1.59 0.2,2.92 4.6,-1.22 5.1,-3.19 -1.6,-5.3 -3.4,3.06 -7.2,0.84 -4.2,-2.1 -9.5,-4.5 -15.3,-4.84 -7.2,2.17 -2,-5.91 -1.9,-9.63 2.5,-5.53 10.1,-3.4 14.7,-2.03 4.3,1.68 7.7,8.16 2,10.53 -4.8,4.47 -12.2,-3.78 -8.1,-7.84 8.3,0.69 -2,-4.3 -3.3,0.5 -1.7,6.08 5.3,10.68 10.7,10.03 7.6,-1.47 6.8,-12.78 -0.2,-14.97 -6.9,-2.2 -8,-2.51 -11.7,-2.78 -6,0.89 -1.5,-4.58 0.6,-6.72 3.6,-3.81 5.9,-2.01 6.2,-0.4 0.4,2.41 -5.2,3.99 -2.7,4.09 3.5,0.13 4.6,-5.18 3.5,-6.13 -4.3,-4.07 -10.2,1.31 -12.7,6.5 -3.3,7.61 -3.9,8.32 -7.6,15.16 -2.1,3.77 -4.1,7.94 -6.6,12 -2.6,2.92 -9.8,12.1 -12.1,6.03 1.8,-3.27 5.2,-7.39 8.6,-9.31 5.9,2.15 -0.6,-5.76 5,-5.66 -2.5,-1.64 3.5,-8.13 -0.6,-5.53 -1.6,0.42 -8,3.51 -2.6,2.91 1.5,1.78 -4.3,8.19 -7.8,8.09 -7.3,-2.79 2.5,-8.4 5.4,-10.97 3.9,-3.38 10.9,-3.96 10.8,-11.28 -0.1,-6.31 -9.3,-5.77 -4.9,-0.16 1.4,-5.29 4.8,0.53 2,4.38 -0.7,3.84 -13.5,5.29 -6,2.28 2.5,-4.5 -6.5,-1.06 -5.8,2.69 -2,5.65 -6.8,1.94 -5,-2.66 -2,-4.16 6.2,-5.54 2.8,-8.12 -6.99,0.67 2.5,-2.55 2.2,-5.38 3.9,-3.06 8.2,-6.04 13.5,-6.47 5.4,1.41 -0.9,2.62 -3.1,1.41 2.1,2.81 8.2,5.93 7.4,-0.25 -4,-3.55 0.2,-12.87 -6.7,-12.69 -5.2,-3.64 -7.1,7.67 -2.3,4.31 -4.4,-2.92 3.1,-2.47 4,0 -1,6.78 -9.3,7.17 -13.6,10.57 -6,5.76 -8.69,-7.44 -3.9,-9.35 5.3,-2.72 1.1,5.25 5,3.1 4.8,-3.93 -2,-7.54 -5.9,-5.1 -1.1,1.16 -1.7,1.38 -2.1,1.16 l 0,-2.53 c 0.7,-1.76 2.3,-3.51 4.3,-1.97 1.7,-1.98 -2,-3.45 -4.3,-5.12 -0.4,-1.06 -0.6,-1.41 -0.8,-1.41 z M 71.62,77.09 c 3.77,0.79 1.3,9.47 0,2.88 -0.18,-0.83 -0.95,-2.27 0,-2.88 z m 56.78,0 c 0.9,0.61 0.2,2.05 0,2.88 -1.3,6.59 -3.8,-2.09 0,-2.88z"/></g><g fill="#d4d4e0"><polygon points="256,68 261,83 277,83 264,93 269,108 256,98 243,108 248,93 235,83 251,83"/><polygon points="157,92 162,107 178,107 165,117 170,132 157,122 144,132 149,117 136,107 152,107"/><polygon points="355,92 360,107 376,107 363,117 368,132 355,122 342,132 347,117 334,107 350,107"/><polygon points="100,148 105,163 121,163 108,173 113,188 100,178 87,188 92,173 79,163 95,163"/><polygon points="412,148 417,163 433,163 420,173 425,188 412,178 399,188 404,173 391,163 407,163"/><polygon points="72,222 77,237 93,237 80,247 85,262 72,252 59,262 64,247 51,237 67,237"/><polygon points="440,222 445,237 461,237 448,247 453,262 440,252 427,262 432,247 419,237 435,237"/></g></g></svg>
